<svg id="_0339_idea" xmlns="http://www.w3.org/2000/svg" xmlns:xlink="http://www.w3.org/1999/xlink" viewBox="0 0 500 500" data-imageid="creative-process-1-18" imageName="Creative Process 1" class="illustrations_image" style="width: 188px;"><defs><style>.cls-1_creative-process-1-18{fill:url(#linear-gradient);}.cls-1_creative-process-1-18,.cls-2_creative-process-1-18,.cls-3_creative-process-1-18,.cls-4_creative-process-1-18,.cls-5_creative-process-1-18,.cls-6_creative-process-1-18,.cls-7_creative-process-1-18,.cls-8_creative-process-1-18,.cls-9_creative-process-1-18,.cls-10_creative-process-1-18,.cls-11_creative-process-1-18,.cls-12_creative-process-1-18,.cls-13_creative-process-1-18,.cls-14_creative-process-1-18{stroke-width:0px;}.cls-2_creative-process-1-18{opacity:.18;}.cls-2_creative-process-1-18,.cls-3_creative-process-1-18,.cls-11_creative-process-1-18{isolation:isolate;}.cls-2_creative-process-1-18,.cls-11_creative-process-1-18,.cls-14_creative-process-1-18{fill:#68e1fd;}.cls-3_creative-process-1-18{fill:url(#radial-gradient);opacity:.69;}.cls-15_creative-process-1-18{fill:none;stroke:#fff;stroke-miterlimit:10;stroke-width:1.05px;}.cls-4_creative-process-1-18{fill:url(#linear-gradient-4-creative-process-1-18);}.cls-5_creative-process-1-18{fill:url(#linear-gradient-2-creative-process-1-18);}.cls-6_creative-process-1-18{fill:url(#linear-gradient-3-creative-process-1-18);}.cls-7_creative-process-1-18{fill:url(#linear-gradient-8-creative-process-1-18);}.cls-8_creative-process-1-18{fill:url(#linear-gradient-7-creative-process-1-18);}.cls-9_creative-process-1-18{fill:url(#linear-gradient-5-creative-process-1-18);}.cls-10_creative-process-1-18{fill:url(#linear-gradient-6-creative-process-1-18);}.cls-11_creative-process-1-18{opacity:.48;}.cls-12_creative-process-1-18{fill:#231f20;}.cls-13_creative-process-1-18{fill:#ffaa71;}</style><linearGradient id="linear-gradient-creative-process-1-18" x1="223.01" y1="1665.39" x2="238.73" y2="1665.39" gradientTransform="translate(-80.06 2026.87) scale(1 -1)" gradientUnits="userSpaceOnUse"><stop offset="0" stop-color="#231f20" stop-opacity="0"/><stop offset="1" stop-color="#231f20"/></linearGradient><linearGradient id="linear-gradient-2-creative-process-1-18" x1="170.37" y1="1740.02" x2="187.95" y2="1740.02" xlink:href="#linear-gradient-creative-process-1-18"/><linearGradient id="linear-gradient-3-creative-process-1-18" x1="231.94" y1="208.49" x2="37.34" y2="298.41" gradientTransform="matrix(1,0,0,1,0,0)" xlink:href="#linear-gradient-creative-process-1-18"/><linearGradient id="linear-gradient-4-creative-process-1-18" x1="244.86" y1="1730.66" x2="214.41" y2="1779.86" xlink:href="#linear-gradient-creative-process-1-18"/><linearGradient id="linear-gradient-5-creative-process-1-18" x1="237.42" y1="1720.32" x2="278.25" y2="1686.94" xlink:href="#linear-gradient-creative-process-1-18"/><linearGradient id="linear-gradient-6-creative-process-1-18" x1="300.42" y1="1874.02" x2="307.33" y2="1865.21" xlink:href="#linear-gradient-creative-process-1-18"/><radialGradient id="radial-gradient_creative-process-1-18" cx="5380.7" cy="-716.17" fx="5380.7" fy="-716.17" r="30.93" gradientTransform="translate(4985.63 2941.65) rotate(-156.33) scale(1 -1)" gradientUnits="userSpaceOnUse"><stop offset=".34" stop-color="#fff"/><stop offset="1" stop-color="#fff" stop-opacity=".39"/></radialGradient><linearGradient id="linear-gradient-7-creative-process-1-18" x1="-1486.73" y1="1121.68" x2="-1455.74" y2="1121.68" gradientTransform="translate(-793.8 1633.45) rotate(90) scale(1 -1)" xlink:href="#linear-gradient-creative-process-1-18"/><linearGradient id="linear-gradient-8-creative-process-1-18" x1="-1488.39" y1="1121.48" x2="-1453.73" y2="1121.48" gradientTransform="translate(-793.53 1633.52) rotate(90) scale(1 -1)" xlink:href="#linear-gradient-creative-process-1-18"/></defs><g id="background_creative-process-1-18"><path class="cls-2_creative-process-1-18 targetColor" d="M465.48,207.58c-5.45,26.87-24.25,49.19-45.38,66.67-20,16.56-42.8,30.13-59.8,49.72-29.49,34.06-38.5,83.04-70.89,114.37-24.34,23.58-59.93,32.75-93.54,27.98-15.81-2.18-31.01-7.61-44.62-15.94-18.34-11.33-33.35-27.24-51.09-39.5-15.05-10.41-31.89-18.12-46.52-29.12-6.75-5.09-12.9-10.93-18.34-17.4-22.27-26.38-32.84-62.88-22.41-95.53,9.39-29.32,33.41-51.88,44.21-80.7,14.97-39.84,3.58-88.18,27.18-123.59,15.72-23.51,43.95-35.87,71.91-39.98,27.96-4.11,56.4-1.22,84.64-.83,30.44.42,60.86-2.07,90.82-7.44,32.42-5.83,40.79-10,47.83,25,3.93,19.65,20,33.98,34.26,47.97,32.07,31.44,60.69,74.28,51.73,118.32Z" style="fill: rgb(104, 225, 253);"/></g><g id="character_creative-process-1-18"><path class="cls-14_creative-process-1-18 targetColor" d="M151.4,349.25c-1.06.06-2.09.32-3.05.77-1.69.49-3.21,1.46-4.38,2.78-1.57,2.15-1.03,5.15-.31,7.72.64,2.61,1.61,5.13,2.91,7.48,1.3,2.37,3.31,4.28,5.74,5.46.33.18.7.26,1.07.24.57-.15,1.05-.55,1.31-1.09,1.28-2.07,1.79-4.53,1.45-6.94-.27-.99-.27-2.04,0-3.03.39-.69.88-1.32,1.45-1.87,1.42-1.81,1.54-4.32.3-6.26-.96-1.44-2.62-2.04-3.67-3.29-.93-1-1.22-1.97-2.83-1.97Z" style="fill: rgb(104, 225, 253);"/><path class="cls-13_creative-process-1-18" d="M151.61,350.43c-.57.46-.99,1.07-1.23,1.76-.1.47-.07.96.1,1.41.35.92.97,1.72,1.78,2.28.55.45,1.23.7,1.94.73.52-.04,1.03-.19,1.49-.45,1.77-.82,3.39-1.92,4.81-3.26.78-.61,1.33-1.46,1.57-2.42.06-.58,0-1.17-.14-1.74-.12-.56-.26-1.11-.39-1.68-.04-.24-.12-.47-.24-.68-.13-.22-.3-.41-.48-.58-.73-.81-1.62-1.46-2.62-1.9-.93-.34-1.23.12-1.76.84-1.46,2.02-3.08,3.92-4.83,5.69Z"/><path class="cls-12_creative-process-1-18" d="M213.24,264.21c-.93,7.49-5.1,22.55-7.17,29.84-4.1,14.41-5.4,22.49-14.69,34.3-5.16,6.55-11.03,12.5-17.52,17.74-3.93,3.18-8.31,6.17-13.27,7.3-1.1-2.25-3.93-3.16-5.24-5.24-.07-.1-.12-.21-.18-.3-1.31-2.46-.08-5.48,1.21-7.96,5.27-10.25,11.11-20.2,17.49-29.8,1.07-1.44,1.95-3,2.62-4.66.46-1.57.75-3.18.85-4.81.26-2.21.62-4.4,1.05-6.55,1.75-7.87,4.01-15.63,6.76-23.21.74-2.69,1.96-5.23,3.62-7.48,3.1-3.69,8.19-5.03,12.97-5.71,7.36-1.09,12.59-2.16,11.5,6.56Z"/><path class="cls-14_creative-process-1-18 targetColor" d="M106.29,277.85c-.85-.64-1.81-1.11-2.84-1.38-1.61-.7-3.39-.94-5.14-.68-2.62.64-4.09,3.29-5.24,5.71-1.2,2.41-2.08,4.96-2.62,7.6-.52,2.65-.21,5.39.89,7.86.13.35.37.66.67.88.54.24,1.15.24,1.69,0,2.31-.77,4.28-2.32,5.57-4.39.42-.94,1.08-1.75,1.91-2.36.74-.29,1.52-.46,2.32-.5,2.25-.48,3.95-2.33,4.26-4.61.18-1.72-.67-3.21-.71-4.87.01-1.28.45-2.21-.76-3.26Z" style="fill: rgb(104, 225, 253);"/><path class="cls-1_creative-process-1-18" d="M151.4,349.25c-1.06.06-2.09.32-3.05.77-1.69.49-3.21,1.46-4.38,2.78-1.57,2.15-1.03,5.15-.31,7.72.64,2.61,1.61,5.13,2.91,7.48,1.3,2.37,3.31,4.28,5.74,5.46.33.18.7.26,1.07.24.57-.15,1.05-.55,1.31-1.09,1.28-2.07,1.79-4.53,1.45-6.94-.27-.99-.27-2.04,0-3.03.39-.69.88-1.32,1.45-1.87,1.42-1.81,1.54-4.32.3-6.26-.96-1.44-2.62-2.04-3.67-3.29-.93-1-1.22-1.97-2.83-1.97Z"/><path class="cls-5_creative-process-1-18" d="M106.29,277.85c-.85-.64-1.81-1.11-2.84-1.38-1.61-.7-3.39-.94-5.14-.68-2.62.64-4.09,3.29-5.24,5.71-1.2,2.41-2.08,4.96-2.62,7.6-.52,2.65-.21,5.39.89,7.86.13.35.37.66.67.88.54.24,1.15.24,1.69,0,2.31-.77,4.28-2.32,5.57-4.39.42-.94,1.08-1.75,1.91-2.36.74-.29,1.52-.46,2.32-.5,2.25-.48,3.95-2.33,4.26-4.61.18-1.72-.67-3.21-.71-4.87.01-1.28.45-2.21-.76-3.26Z"/><path class="cls-13_creative-process-1-18" d="M106.91,280.28c-.72-.13-1.45-.07-2.14.18-.43.23-.78.58-1.02,1.01-.47.86-.67,1.84-.58,2.82.01.71.26,1.4.69,1.97.37.38.82.67,1.31.85,1.77.81,3.66,1.34,5.59,1.57.97.2,1.98.06,2.87-.38.48-.33.9-.74,1.23-1.22.35-.46.68-.92,1.02-1.39.14-.2.25-.41.34-.63.07-.24.11-.49.12-.75.18-1.06.14-2.14-.12-3.18-.34-.92-.89-.86-1.78-.8-2.51.18-5.04.17-7.55-.05Z"/><path class="cls-12_creative-process-1-18" d="M197.71,266.98c-.23,1-.8,1.88-1.62,2.49-7.99,7.45-10.81,17.32-18.79,24.77-1.81,1.89-3.94,3.46-6.28,4.64-1.93.84-27.09.41-35,.41s-16.43-.62-23.16-4.95c-.88-.48-1.61-1.2-2.11-2.07-.43-1.16-.51-2.42-.24-3.63.22-2.25.76-4.45,1.6-6.55.55-1.3,1.41-2.45,2.52-3.33,2.62-2,6.21-1.95,9.5-1.86,11.76.33,23.54-.07,35.25-1.22.75,0,1.49-.21,2.14-.59.7-.66,1.16-1.54,1.31-2.49,1.56-5.57,3.47-11.03,5.7-16.36,1.19-2.82,3.93-12.18,7.24-13.27l.25-.07c3.51-.69,9.41,7.09,11.5,9.39,3.45,3.79,6.57,7.87,9.3,12.21.56.7.88,1.57.89,2.48Z"/><path class="cls-13_creative-process-1-18" d="M130.92,218.32c-.05-1.63.38-3.25,1.22-4.65,2.79-5.27,7.61-9.17,13.35-10.81,1.15,2.08,2.29,4.09,3.43,6.17.36.55.6,1.17.71,1.82-.05,1.13-.43,2.23-1.1,3.14-.81,1.48-1.39,3.08-1.7,4.74-.06.81-.32,1.6-.75,2.29-.46.67-1.37.84-2.04.38-.02-.02-.05-.03-.07-.05.14-1.8-.08-3.62-.66-5.33-1.74.68-2.62,2.55-3.24,4.31-.38,1.83-1.18,3.54-2.34,5-.26.28-.66.52-1,.37s-.41-.68-.38-1.1l.26-4.17c0,2.02-1.28,3.81-3.18,4.47-.52-2.15-.26-4.41.73-6.38-.54.58-.6,1.44-1,2.12s-1.49,1.1-1.9.42c-.14-.29-.16-.61-.08-.92.23-1.7.63-3.37,1.19-4.99l-1.06,2.91c-.21.18-.21.41-.41.25Z"/><path class="cls-14_creative-process-1-18 targetColor" d="M314.22,154.68c-.63,1.99-1.69,3.82-3.1,5.36-3.85,4.48-8.95,7.66-13.82,10.99-12.96,8.84-24.89,19.21-38.91,26.36-3.76,1.93-7.72,3.65-10.78,6.55-1.77,1.78-3.3,3.8-4.53,5.99-2.23,3.69-4.06,7.59-5.49,11.66-2.62,7.3-6.12,14.16-9.01,21.33-3.1,7.69-6.42,15.37-11.32,22.05-3.29,4.48-7.59,8.66-13.1,9.76-5.24,1.03-10.72-1.01-14.95-4.26-4.23-3.25-7.4-7.59-10.48-11.87l-.08-.09c-.77-1.06-1.56-2.15-2.25-3.29-1.03-1.55-1.75-3.29-2.14-5.11-.11-.64-.17-1.28-.18-1.93,0-3.72,1.61-7.38,3.24-10.79,5.96-12.55,11.93-25.1,17.88-37.64,8.93-18.81,0,0,0-.1-11.08.44-21.9,3.44-31.62,8.76-2.6,1.63-5.39,2.95-8.31,3.93-2.98.96-6.24.41-8.74-1.47-3.17-2.79-3.04-8.03-.84-11.63,2.2-3.6,5.93-5.96,9.55-8.16,13.57-8.2,28.31-16.18,44.17-15.72,6.31.18,15.48-1.17,21.77-.47,13.24,1.45,25.66,5.07,36.38-2.84,7.54-5.85,15.49-11.15,23.79-15.85,5.84-3.12,12-5.66,18.13-8.19,2.26-1.07,4.68-1.77,7.17-2.06,2.53-.27,5.03.76,6.65,2.72,1.18,1.77,1.52,3.97.92,6.01Z" style="fill: rgb(104, 225, 253);"/><path class="cls-13_creative-process-1-18" d="M225.95,154.47l-.67-.98c-.33-.53-.74-1-1.22-1.39-.5-.39-1.17-.48-1.76-.25-.83.39-1.78.83-1.85,1.74-.02,2.03.46,4.04,1.4,5.84.6.8,1.09,1.68,1.43,2.62.07.53.07,1.08,0,1.61-.22,4.4,1.73,8.96.25,13.1-.51,1.41-1.4,2.75-1.31,4.26.08,1.12.58,2.16,1.4,2.92.82.75,1.79,1.33,2.83,1.72,1.59.64,3.27,1.05,4.98,1.21,1.44.31,2.93-.31,3.73-1.55,1.35-1.6,2.43-3.41,3.21-5.36,2.42-1.45,4.92-2.76,7.49-3.93,7.24-3.07,10.73-11.45,11.59-19.27.41-3.6.37-7.41-1.31-10.62-2.3-4.06-6.55-6.61-11.21-6.73-4.61-.04-9.07.72-12.52,3.79-3,2.53-6.75,7.33-6.48,11.28Z"/><path class="cls-12_creative-process-1-18" d="M253.32,135.87c-.03-.13-.05-.27-.08-.4-.66-3.1-3.41-5.51-6.49-6.26s-6.39,0-9.16,1.53c-1.03-1.78-3.5-1.96-5.54-1.81-3.13.24-6.48.9-8.65,3.17-2,2.1-2.59,5.18-2.71,8.08-.02.58-.06,1.21-.47,1.62-.27.26-.64.37-.99.52-2.14.89-3.33,3.46-2.9,5.73.24,1.26.88,2.64.2,3.73-.23.38-.6.65-.94.93-1.99,1.6-3.67,3.79-3.95,6.33-.28,2.54,1.22,5.36,3.71,5.93.94.22,1.99.01,2.91.3.73.22,1.26.85,1.87,1.33.73.59,1.44,1.2,2.08,1.89.33.36,1.65,1.62,1.59,2.13l.73-6.18c.13-.58.13-1.18,0-1.76-.26-.58-.61-1.1-1.06-1.55-1.66-2.01-2.53-4.55-2.45-7.15,0-.73.22-1.6.92-1.86s1.64.48,2.17,1.21l3.41,4.6c-.42-2.01-.06-4.76,1.38-6.34.75-.83,1.81-1.3,2.68-2,1.1-.88,1.91-2.11,2.28-3.47.19-.72.27-1.47.43-2.2s.44-1.46.97-1.99c.56-.56,1.25-.58,1.95-.81.74-.25,1.46-.57,2.22-.78,1.74-.48,3.56-.71,5.37-.68,1.46.03,2.93.19,4.3.72,1.53.6,2.26,1.38,3.06,2.71,1.23,2.04,4.46,2.55,4.92,5.12,1.46-1.41,2.17-3.54,1.85-5.54s-1.67-3.8-3.49-4.68c-.64-.31-1.37-.54-1.77-1.14-.19-.29-.28-.63-.35-.97Z"/><path class="cls-13_creative-process-1-18" d="M311.99,140.96c.63-1.91,1.51-3.73,2.62-5.41.99-1.06,2.16-1.95,3.45-2.62.2-.15.45-.22.69-.18.24.11.4.34.43.6.37,1.44-.47,2.93-.34,4.41,0,.13.05.26.14.35.2.16.47,0,.66-.17,1.84-1.75,3.78-3.38,5.83-4.87,2.06-1.51,4.57-2.3,7.13-2.24,0,2.02-1.69,3.58-3.28,4.83,2.07-1.71,4.57-2.83,7.23-3.24.48.75-.18,1.69-.81,2.33l-4.36,4.41c1.81-1.27,3.91-2.09,6.1-2.38.21-.07.43-.07.64,0,.33.21.46.63.3.98-.15.35-.39.65-.69.88-2.46,2.2-5.15,4.14-8.02,5.78,1.61-.75,3.32-1.27,5.07-1.55.17.92-.2,1.86-.96,2.41-1.12.98-2.35,1.81-3.68,2.48-2.42,1.56-5.11,2.65-7.94,3.22-1.78.24-3.69.09-5.24.98-.72.42-1.31,1.05-1.99,1.52-1.36.97-3.08,1.29-4.7.88-1.43-.41-2.62-1.42-3.25-2.76-.86-1.67-.59-3.69.67-5.08,1.79-1.55,3.25-3.44,4.3-5.57Z"/><path class="cls-6_creative-process-1-18" d="M199.64,212.67c-5.48,9.85-10.06,20.18-13.68,30.86-1.78,5.33-3.46,10.93-7.22,15.07-.08.1-.16.2-.26.29-.78-1.17-1.48-2.39-2.07-3.67-1.05-2.24-1.83-4.61-2.32-7.03,0-3.72,1.61-7.38,3.24-10.79,5.97-12.55,11.93-25.1,17.88-37.64,2.12-.2,4.53.76,7.19,3.81,2.14,2.44-1.19,6.28-2.76,9.1Z"/><path class="cls-4_creative-process-1-18" d="M177.94,257.55c-.55,2.32-2.34,4.39-3.25,6.55-1.98,4.82-2.48,11.9-6.97,15.25-3.22,2.87-7.86,3.55-12.09,3.93-12.64,1.15-25.38.89-37.99.62-1.7.16-3.41-.25-4.86-1.17-.22-.18-.43-.38-.6-.6.55-1.3,1.41-2.45,2.52-3.33,2.62-2,6.21-1.95,9.5-1.86,11.76.33,23.54-.07,35.25-1.22.75,0,1.49-.21,2.14-.59.7-.66,1.16-1.54,1.31-2.49,1.54-5.58,3.42-11.06,5.63-16.4,1.19-2.82,3.93-12.18,7.24-13.27.74,1.38,1.19,2.9,1.31,4.47.38,3.08,1.61,6.96.86,10.11Z"/><path class="cls-9_creative-process-1-18" d="M156.53,347.24c-.36.35-.77.66-1.21.9-.07-.1-.12-.21-.18-.3-1.31-2.46-.08-5.48,1.21-7.96,5.28-10.25,11.14-20.2,17.53-29.8,1.07-1.44,1.95-3,2.62-4.66.46-1.57.75-3.18.85-4.81.26-2.21.62-4.4,1.05-6.55,3.31-2.72,8.57-5.54,8.57-6.55.22,4.9.35,9.77.39,14.69-.09,2.88-26.83,41.49-30.82,45.05Z"/><path class="cls-10_creative-process-1-18" d="M223.17,154.86c-.37-.05-.74.15-.9.48-.16.34-.19.73-.08,1.09.12.35.26.69.42,1.02.22.64.53,1.25.9,1.82.39.58,1.09.87,1.77.73.15-.05.28-.13.39-.25.11-.18.16-.38.16-.59.03-.98-.24-1.94-.79-2.75-.23-.26-.49-.49-.79-.68-.34-.29-.6-.79-1.09-.88Z"/></g><g id="idea_creative-process-1-18"><rect class="cls-14_creative-process-1-18 targetColor" x="320.47" y="146.72" width="14.8" height="31" rx="3.09" ry="3.09" transform="translate(47.68 397.38) rotate(-66.33)" style="fill: rgb(104, 225, 253);"/><rect class="cls-14_creative-process-1-18 targetColor" x="325.27" y="145.13" width="5.37" height="34.66" rx="2.59" ry="2.59" transform="translate(47.5 397.6) rotate(-66.33)" style="fill: rgb(104, 225, 253);"/><path class="cls-14_creative-process-1-18 targetColor" d="M373.16,129.83c-1.77,4.04-4.48,7.59-7.93,10.35l-21.62,21.24-25.26-11.07,2.32-31.44c-.07-15.13,12.14-27.45,27.27-27.52,15.13-.07,27.45,12.14,27.52,27.27.02,3.83-.77,7.62-2.31,11.13v.05Z" style="fill: rgb(104, 225, 253);"/><path class="cls-3_creative-process-1-18" d="M373.16,129.83c-1.77,4.04-4.48,7.59-7.93,10.35l-21.62,21.24-25.26-11.07,2.32-31.44c-.07-15.13,12.14-27.45,27.27-27.52,15.13-.07,27.45,12.14,27.52,27.27.02,3.83-.77,7.62-2.31,11.13v.05Z"/><path class="cls-15_creative-process-1-18" d="M327.41,154.79c-.31-9.32,1.44-18.59,5.14-27.14.83-1.91,2.11-4.05,4.18-4.24,2.55-.24,4.31,2.62,4.53,5.24.28,3.39-.92,6.73-3.29,9.17-.42-2.34-.17-4.76.71-6.97.43-1.7,1.23-3.28,2.36-4.62,1.19-1.34,3.06-1.86,4.77-1.31,2.49,1,2.88,4.45,2.08,7.02-.93,2.92-2.8,5.46-5.33,7.19.35-3.67,2.63-6.87,5.99-8.4,1.11-.54,2.35-.72,3.56-.51,1.23.23,2.22,1.15,2.54,2.36.1.7.04,1.41-.2,2.07-1.31,4.91-5.02,8.84-8.87,12.2-3.85,3.35-8.07,6.34-11.23,10.35"/><rect class="cls-8_creative-process-1-18" x="320.47" y="146.72" width="14.8" height="31" rx="3.09" ry="3.09" transform="translate(47.68 397.38) rotate(-66.33)"/><rect class="cls-7_creative-process-1-18" x="325.27" y="145.13" width="5.37" height="34.66" rx="2.59" ry="2.59" transform="translate(47.5 397.6) rotate(-66.33)"/><path class="cls-11_creative-process-1-18 targetColor" d="M331.26,194.45c-9.62,24.66,12.29,54.13.88,78.02-4.11,8.59-11.51,14.29-19.68,19.4-10.04,6.29-21.25,11.69-28.98,20.49-5.49,6.26-8.79,13.66-11.17,21.57-4.91,16.26-5.97,34.65-14.27,49.61-3.54,6.37-8.29,11.92-13.51,17.14-13.04,13.03-29.02,23.96-36.53,40.32-.5,1.09-.96,2.2-1.38,3.33-2.88,7.75-4.29,17.19-10.71,21.97-.6-.08-1.2-.17-1.8-.27-15.17-2.32-29.73-7.65-42.82-15.67-18.34-11.33-33.35-27.23-51.09-39.5-15.05-10.41-31.89-18.11-46.52-29.12-.25-.19-.49-.37-.74-.58-6.46-4.94-12.36-10.59-17.6-16.82,3.43-2.6,7.31-4.54,11.46-5.71,16.25-23.08,41.68-38.03,69.75-41,13.82-1.39,27.74.23,41.62,1.06,12.02.69,24.06.79,36.11.3,7.04-.3,14.41-.92,20.28-4.83,12.3-8.28,12.07-26.48,20.24-38.85,7.29-11.01,20.43-16.31,32.58-21.47,4.82-2.05,9.76-4.31,14.3-7.06,6.91-4.17,12.91-9.44,16.19-16.7,4.99-11.02,2.43-23.84,4.24-35.79,1.54-10.26,6.25-19.72,10.89-28.98,2.68-5.33,9.77-1.48,15.12,1.17,1.02.52,1.95,1.15,2.8,1.88,3.7,3.11,5.73,7.88,5.29,12.83-.53,4.72-3.23,8.84-4.95,13.26Z" style="fill: rgb(104, 225, 253);"/><path class="cls-11_creative-process-1-18 targetColor" d="M308.68,233.97c-7.06,18.12,4.77,39.11,3.78,57.9-.22,4.24-1.1,8.37-2.99,12.33-6.94,14.49-24.32,19.8-37.16,29.73-2.41,1.85-4.65,3.87-6.64,6.15-14.23,16.22-12.11,41.04-21.14,60.6-.54,1.18-1.13,2.34-1.76,3.48-8.16,14.72-23.46,24.55-34.77,36.84-4.88,5.3-9.03,11.07-11.54,17.88-.86,2.29-1.57,4.74-2.35,7.15-15.17-2.32-29.73-7.65-42.82-15.67-18.34-11.33-33.35-27.23-51.09-39.5-15.05-10.41-31.89-18.11-46.52-29.12-.25-.19-.49-.37-.74-.58,14.65-20.46,37.34-33.7,62.39-36.37,12.44-1.24,24.98.22,37.47.95,10.82.64,21.67.74,32.51.28,6.34-.27,13-.83,18.26-4.35,11.07-7.46,10.86-23.83,18.22-34.97,6.55-9.91,18.35-14.67,29.32-19.32,10.98-4.65,22.56-10.57,27.51-21.39,2.7-5.99,2.94-12.57,3.06-19.21.07-4.36.11-8.75.74-13.02,1.39-9.17,26.92-61.43,31.1-69.76,2.41-4.79,9.78,0,14.58,2.45,1.76.9,2.56,1.39,2.82,1.91.47.91-.63,1.92-1,5.3-.45,4.25-19.7,56.3-21.24,60.31Z" style="fill: rgb(104, 225, 253);"/></g></svg>